<svg width="343" height="74" viewBox="0 0 343 74" fill="none" xmlns="http://www.w3.org/2000/svg">
<path d="M0.5 16C0.5 7.43959 7.43959 0.5 16 0.5H80.5312C89.0917 0.5 96.0312 7.43959 96.0312 16C96.0312 24.5604 89.0917 31.5 80.5312 31.5H16C7.43959 31.5 0.5 24.5604 0.5 16Z" stroke="#CCCCCC"/>
<path d="M107.469 16C107.469 7.43959 114.409 0.5 122.969 0.5H177.93C186.491 0.5 193.43 7.43959 193.43 16C193.43 24.5604 186.491 31.5 177.93 31.5H122.969C114.409 31.5 107.469 24.5604 107.469 16Z" stroke="#CCCCCC"/>
<path d="M222.5 58C222.5 49.4396 229.44 42.5 238 42.5H326.039C334.599 42.5 341.539 49.4396 341.539 58C341.539 66.5604 334.599 73.5 326.039 73.5H238C229.44 73.5 222.5 66.5604 222.5 58Z" stroke="#CCCCCC"/>
<path d="M0.5 58C0.5 49.4396 7.43959 42.5 16 42.5H54C62.5604 42.5 69.5 49.4396 69.5 58C69.5 66.5604 62.5604 73.5 54 73.5H16C7.43959 73.5 0.5 66.5604 0.5 58Z" stroke="#CCCCCC"/>
<path fill-rule="evenodd" clip-rule="evenodd" d="M80 58C80 49.1634 87.1634 42 96 42H195.93C204.766 42 211.93 49.1634 211.93 58C211.93 66.8366 204.766 74 195.93 74H96C87.1634 74 80 66.8366 80 58V58Z" fill="#FD6C57"/>
<path d="M204.5 16C204.5 7.43959 211.44 0.5 220 0.5H313.574C322.135 0.5 329.074 7.43959 329.074 16C329.074 24.5604 322.135 31.5 313.574 31.5H220C211.44 31.5 204.5 24.5604 204.5 16Z" stroke="#CCCCCC"/>
</svg>
