<svg width="27" height="32" viewBox="0 0 27 32" fill="none" xmlns="http://www.w3.org/2000/svg">
<path fill-rule="evenodd" clip-rule="evenodd" d="M5.21111 14.957V23.3795C4.20842 24.1817 3.30601 24.8836 2.40359 25.3849C2.10279 25.5854 1.90226 25.786 1.70172 26.0868V4.32857C1.70172 -0.0832367 8.41969 -0.0832367 8.41969 4.32857V13.0519L5.21111 14.957Z" stroke="white" stroke-width="2"/>
<path fill-rule="evenodd" clip-rule="evenodd" d="M20.3519 7.03542C21.4548 5.73193 23.3599 5.53139 24.6634 6.53408C25.9669 7.53676 26.1674 9.44185 25.1647 10.7454C25.1647 10.8456 13.8344 25.3845 5.61243 30.4982C4.20868 31.4006 2.40385 30.9995 1.50144 29.5958C0.599026 28.192 1.0001 26.2869 2.40385 25.3845C9.72344 20.7722 20.3519 7.1357 20.3519 7.03543L20.3519 7.03542Z" stroke="white" stroke-width="2"/>
<path fill-rule="evenodd" clip-rule="evenodd" d="M22.2569 10.445C22.6445 10.445 22.9588 10.1308 22.9588 9.74313C22.9588 9.35549 22.6445 9.04125 22.2569 9.04125C21.8693 9.04125 21.555 9.35549 21.555 9.74313C21.555 10.1308 21.8693 10.445 22.2569 10.445Z" fill="white" stroke="white"/>
<path fill-rule="evenodd" clip-rule="evenodd" d="M4.40917 28.2927C4.79681 28.2927 5.11105 27.9785 5.11105 27.5909C5.11105 27.2032 4.79681 26.889 4.40917 26.889C4.02153 26.889 3.70729 27.2032 3.70729 27.5909C3.70729 27.9785 4.02153 28.2927 4.40917 28.2927Z" fill="white" stroke="white"/>
</svg>
