<svg width="31" height="33" viewBox="0 0 31 33" fill="none" xmlns="http://www.w3.org/2000/svg">
<path fill-rule="evenodd" clip-rule="evenodd" d="M29.8848 28.2317C25.4301 29.307 22.3195 27.3868 21.7818 22.8937C21.513 20.5895 21.705 18.2085 21.8202 15.866C21.9354 13.7154 22.7035 11.6416 22.2811 9.41429C21.513 5.03637 18.4024 1.4265 14.2933 0.466431C13.3716 0.274412 12.4499 0.120809 11.5282 0.0439968C7.11192 -0.340032 3.27163 1.81053 1.50511 5.68921C0.00739897 8.99187 -0.415035 12.4865 0.429823 16.058C0.929059 18.1702 1.77393 20.1671 2.38837 22.2408C3.34844 25.5051 4.03969 28.7693 1.96594 31.9184C1.92753 31.9568 1.96594 32.0336 2.00434 32.1488C3.31004 32.1104 4.46213 31.6495 5.4606 30.7663C6.9583 29.4222 7.76477 27.7325 8.11039 25.7739C8.45602 24.0458 8.18719 22.4713 7.07351 21.0504C6.42066 20.2055 5.92143 19.207 5.34538 18.2854C4.61573 17.2101 4.42371 15.9812 4.46212 14.7139C4.46212 14.4835 4.57732 14.0995 4.65413 13.7922C4.73094 13.5234 5.84463 10.4128 5.88303 9.60631C5.99824 7.30214 7.53435 6.30367 9.4929 7.37894C12.2579 8.91505 14.9077 10.6432 17.5191 12.4097C18.5176 13.0626 19.0936 14.1378 18.94 15.4819C18.7864 16.5572 18.7864 17.6709 18.5176 18.7078C18.0567 20.5511 17.3271 22.2408 15.3301 23.0089C15.1381 23.0857 14.9845 23.4697 14.9845 23.7002C15.0997 25.7739 15.5606 27.7709 16.5206 29.6142C17.9799 32.4176 20.3609 33.5313 23.4331 32.7632C26.0829 32.1104 28.2719 30.6895 30.3073 29.0382C30.6913 28.7309 30.3841 28.1165 29.8848 28.2317H29.8848Z" fill="white"/>
</svg>
