<svg width="21" height="21" viewBox="0 0 21 21" fill="none" xmlns="http://www.w3.org/2000/svg">
<path fill-rule="evenodd" clip-rule="evenodd" d="M20.7405 1.90167C20.9087 1.69367 21.0003 1.43418 21 1.16667C21 0.522333 20.4777 0 19.8334 0H1.1667C0.69216 0.000960646 0.265478 0.289258 0.0875316 0.729171C0.0286946 0.867463 -0.00108537 1.01638 3.02224e-05 1.16667C3.02224e-05 1.43688 0.093843 1.69873 0.265437 1.90749L1.00337 2.80875L5.16545 7.88959V7.88959L7.80504 11.0979C8.04007 11.3219 8.17112 11.6337 8.16671 11.9583V19.8333C8.16671 20.4777 8.68904 21 9.33337 21C9.57488 20.9995 9.8103 20.9241 10.0071 20.7842L10.0771 20.7317V20.7317L12.3142 19.0517L12.3784 19.005C12.6645 18.7848 12.8325 18.4444 12.8334 18.0833V11.9583C12.833 11.6402 12.9626 11.3357 13.1921 11.1154L15.8346 7.88959L20.7346 1.9075L20.7405 1.90167Z" fill="#333333"/>
</svg>
