<svg width="25" height="26" viewBox="0 0 25 26" fill="none" xmlns="http://www.w3.org/2000/svg">
<path fill-rule="evenodd" clip-rule="evenodd" d="M24.8031 4.98505C24.8031 2.93136 23.4736 1.08305 22.7469 0.226257C22.6365 0.0835431 22.4662 0 22.2857 0C22.1053 0 21.935 0.0835431 21.8245 0.226247C21.0979 1.08303 19.7683 2.93135 19.7683 4.98504V6.65416H24.8031V4.98505Z" fill="white"/>
<path fill-rule="evenodd" clip-rule="evenodd" d="M5.64875 17.0441H1.6158C1.4628 17.0441 1.31634 17.1061 1.20991 17.2161C1.10348 17.326 1.04618 17.4744 1.0511 17.6273L1.28897 25.0015C1.30693 25.5578 1.76313 25.9996 2.31978 25.9996H4.94476C5.50141 25.9996 5.95761 25.5578 5.97555 25.0015L6.21343 17.6273C6.21836 17.4744 6.16105 17.326 6.05463 17.2161C5.9482 17.1061 5.80174 17.0441 5.64874 17.0441L5.64875 17.0441Z" fill="white"/>
<path fill-rule="evenodd" clip-rule="evenodd" d="M6.83218 5.70555H5.08257C5.06653 5.16431 5.03588 4.64414 4.99245 4.15278H6.55352C6.79285 4.15278 6.98686 3.95877 6.98686 3.71945C6.98686 3.48012 6.79285 3.28611 6.55352 3.28611H4.89892C4.83449 2.76393 4.74201 2.24559 4.62187 1.73335H6.14607C6.38539 1.73335 6.5794 1.53934 6.5794 1.30001C6.5794 1.06069 6.38539 0.866678 6.14607 0.866678H4.35801C4.14418 0.316221 3.89675 0 3.63276 0C3.36876 0 3.12133 0.31621 2.9075 0.866678H1.11944C0.880119 0.866678 0.68611 1.06069 0.68611 1.30001C0.68611 1.53934 0.880119 1.73335 1.11944 1.73335H2.64365C2.52351 2.24559 2.43103 2.76392 2.3666 3.2861H0.712C0.472674 3.2861 0.278666 3.48011 0.278666 3.71944C0.278666 3.95876 0.472674 4.15277 0.712 4.15277H2.27307C2.22964 4.64413 2.19899 5.1643 2.18295 5.70554H0.433334C0.194008 5.70554 0 5.89955 0 6.13887C0 6.3782 0.194008 6.57221 0.433334 6.57221H2.16966L2.16959 6.58423C2.16959 7.11505 2.18391 7.63053 2.21027 8.12497H0.71199C0.472664 8.12497 0.278656 8.31898 0.278656 8.55831C0.278656 8.79763 0.472664 8.99164 0.71199 8.99164H2.27093C2.31976 9.55039 2.38477 10.0724 2.46387 10.5444H1.11943C0.880108 10.5444 0.6861 10.7384 0.6861 10.9777C0.6861 11.2171 0.880108 11.4111 1.11943 11.4111H2.63802C2.71486 11.7482 2.81804 12.0789 2.94664 12.3999V15.8888H4.31885V12.3999C4.44744 12.0789 4.55063 11.7482 4.62746 11.4111H6.14605C6.38537 11.4111 6.57938 11.2171 6.57938 10.9778C6.57938 10.7384 6.38537 10.5444 6.14605 10.5444H4.80162C4.88072 10.0724 4.94572 9.55041 4.99455 8.99165H6.5535C6.79283 8.99165 6.98684 8.79764 6.98684 8.55832C6.98684 8.31899 6.79283 8.12498 6.5535 8.12498H5.05522C5.08158 7.63054 5.0959 7.11507 5.0959 6.58424L5.09583 6.57222H6.83216C7.07148 6.57222 7.26549 6.37821 7.26549 6.13888C7.26549 5.89956 7.07148 5.70555 6.83216 5.70555H6.83218Z" fill="white"/>
<path fill-rule="evenodd" clip-rule="evenodd" d="M15.2161 15.6H10.784C10.6832 15.6 10.5866 15.6408 10.5163 15.713C10.446 15.7853 10.4079 15.883 10.4107 15.9838L10.6611 24.9976C10.6766 25.5556 11.1334 25.9999 11.6916 25.9999H14.3085C14.8667 25.9999 15.3235 25.5556 15.339 24.9976L15.5894 15.9838C15.5922 15.883 15.5541 15.7853 15.4838 15.7131C15.4135 15.6408 15.317 15.6 15.2161 15.6Z" fill="white"/>
<path fill-rule="evenodd" clip-rule="evenodd" d="M12.4244 14.4443H13.5753V3.24043L14.4443 0H11.5554L12.4244 3.24043V14.4443Z" fill="white"/>
</svg>
