<svg width="54" height="62" viewBox="0 0 54 62" fill="none" xmlns="http://www.w3.org/2000/svg">
<g filter="url(#filter0_d_0_4186)">
<path fill-rule="evenodd" clip-rule="evenodd" d="M46.99 25.0862C46.99 13.5706 37.3393 4.31896 25.7186 5.04748C15.7866 5.66939 7.69659 13.7742 7.05321 23.7491C6.47499 32.7135 11.7597 40.5139 19.4277 43.6701C19.4862 43.6983 19.5336 43.7242 19.5965 43.7523C22.9348 45.2656 25.0915 49.2836 26.1717 51.8408C26.4811 52.5738 27.5191 52.5738 27.8286 51.8408C28.9088 49.2836 31.0655 45.2656 34.4038 43.7523C34.4667 43.7242 34.5141 43.6983 34.5726 43.6701C41.857 40.6724 46.99 33.4827 46.99 25.0862Z" fill="#FD6C57"/>
<path d="M46.99 25.0862C46.99 13.5706 37.3393 4.31896 25.7186 5.04748C15.7866 5.66939 7.69659 13.7742 7.05321 23.7491C6.47499 32.7135 11.7597 40.5139 19.4277 43.6701C19.4862 43.6983 19.5336 43.7242 19.5965 43.7523C22.9348 45.2656 25.0915 49.2836 26.1717 51.8408C26.4811 52.5738 27.5191 52.5738 27.8286 51.8408C28.9088 49.2836 31.0655 45.2656 34.4038 43.7523C34.4667 43.7242 34.5141 43.6983 34.5726 43.6701C41.857 40.6724 46.99 33.4827 46.99 25.0862ZM46.99 25.0862V25.0862Z" stroke="white" stroke-width="2"/>
</g>
<path fill-rule="evenodd" clip-rule="evenodd" d="M34.1624 12.9193V12.8985H29.972V13.8941H33.9541V14.8895H29.972V15.8849H33.9541V16.8803H29.972V17.8757H33.9541V18.8711H29.972V19.8665H33.9541V20.8619H29.972V21.8575H33.9541V22.8529H29.972V23.8483H33.9541V24.8437H29.972V25.8391H33.9541V33.8046C33.9541 34.355 34.4004 34.8 34.9498 34.8C35.5 34.8 35.9452 34.3548 35.9452 33.8046V14.8895C35.9454 13.861 35.1629 13.025 34.1624 12.9193Z" fill="white"/>
<defs>
<filter id="filter0_d_0_4186" x="0" y="0" width="54" height="61.4034" filterUnits="userSpaceOnUse" color-interpolation-filters="sRGB">
<feFlood flood-opacity="0" result="BackgroundImageFix"/>
<feColorMatrix in="SourceAlpha" type="matrix" values="0 0 0 0 0 0 0 0 0 0 0 0 0 0 0 0 0 0 127 0" result="hardAlpha"/>
<feOffset dy="2"/>
<feGaussianBlur stdDeviation="3"/>
<feColorMatrix type="matrix" values="0 0 0 0 0 0 0 0 0 0 0 0 0 0 0 0 0 0 0.160784 0"/>
<feBlend mode="normal" in2="BackgroundImageFix" result="effect1_dropShadow_0_4186"/>
<feBlend mode="normal" in="SourceGraphic" in2="effect1_dropShadow_0_4186" result="shape"/>
</filter>
</defs>
</svg>
