<svg width="25" height="29" viewBox="0 0 25 29" fill="none" xmlns="http://www.w3.org/2000/svg">
<path fill-rule="evenodd" clip-rule="evenodd" d="M22.9567 7.24425C22.6847 7.34276 22.5439 7.64306 22.6422 7.91516C23.5123 10.3315 23.7849 12.7898 23.3708 14.4932C22.9965 15.7918 22.3477 16.9948 21.4681 18.0208C20.5613 19.2211 19.6284 20.4633 19.6284 22.3083V27.749H10.1622V24.8504C10.1662 24.6889 10.0954 24.5346 9.97049 24.4322C9.84554 24.3298 9.68034 24.2907 9.52275 24.3263C9.49129 24.3263 6.52461 24.9657 4.94167 23.561C3.21198 22.02 3.59985 18.0941 3.60509 18.0574C3.61954 17.8267 3.48112 17.6138 3.26439 17.5333L1.59759 16.9043L4.74249 13.2353C4.85564 13.1021 4.89496 12.9212 4.84731 12.7531C4.54947 11.5543 4.4573 10.3136 4.57476 9.08401C5.89766 9.71536 7.33481 10.072 8.7994 10.1323C9.10893 10.1497 9.39487 10.3033 9.58038 10.5516C9.89488 10.971 9.95253 11.6576 9.74811 12.5434C9.19251 14.9283 10.9117 15.3948 12.0491 15.6883L12.6152 15.8508C12.6671 15.8608 12.7205 15.8608 12.7724 15.8508C13.0102 15.8617 13.2254 15.711 13.2966 15.4839C13.3823 15.209 13.2302 14.9164 12.9559 14.8287L12.3479 14.6505C11.0428 14.2993 10.4767 14.0844 10.7754 12.7373C11.1266 11.2278 10.7754 10.3525 10.4243 9.88073C10.0499 9.38322 9.47371 9.07786 8.85181 9.04733C5.70692 8.87436 3.35872 7.6164 2.60394 5.68753C2.14269 4.50819 2.24228 2.7156 2.35759 1.6673C3.83569 2.57932 7.49426 4.11508 13.6635 2.34869C15.4289 1.83217 17.3119 1.88351 19.0465 2.49545C19.3172 2.59966 19.6211 2.46473 19.7253 2.19407C19.8295 1.92341 19.6946 1.61951 19.4239 1.51529C17.4778 0.813534 15.3582 0.752927 13.3752 1.34232C5.85891 3.48085 2.33662 0.372637 2.29994 0.341193C2.15984 0.212197 1.96081 0.169333 1.78004 0.229221C1.59926 0.289118 1.4652 0.442343 1.42985 0.629474C1.42985 0.770995 0.821839 4.03645 1.61855 6.06491C2.02075 7.0409 2.70053 7.87741 3.57362 8.47076C3.37601 9.89956 3.43995 11.3524 3.76232 12.7583L0.32913 16.7943C0.217623 16.9241 0.176533 17.1002 0.219062 17.266C0.263041 17.4305 0.384234 17.5635 0.544036 17.6224L2.54105 18.3719C2.47815 19.5251 2.47815 22.78 4.26025 24.363C5.74884 25.6838 8.02365 25.6052 9.12437 25.4689V28.2731C9.12437 28.5626 9.35903 28.7973 9.64852 28.7973H20.1525C20.442 28.7973 20.6766 28.5626 20.6766 28.2731V22.2926C20.6766 20.7988 21.4314 19.7976 22.3067 18.6235C23.279 17.4843 23.9941 16.1488 24.4033 14.7081C25.069 11.9773 24.0941 8.78 23.6433 7.53253C23.591 7.40281 23.4891 7.29938 23.3601 7.24524C23.2311 7.1911 23.0859 7.19074 22.9567 7.24425H22.9567Z" fill="white" stroke="white" stroke-width="0.4"/>
</svg>
