<svg width="36" height="24" viewBox="0 0 36 24" fill="none" xmlns="http://www.w3.org/2000/svg">
<path fill-rule="evenodd" clip-rule="evenodd" d="M15.3662 22.6123C19.5496 22.6123 22.9409 19.221 22.9409 15.0376C22.9409 10.8542 19.5496 7.46295 15.3662 7.46295C11.1828 7.46295 7.79155 10.8542 7.79155 15.0376C7.79155 19.221 11.1828 22.6123 15.3662 22.6123Z" stroke="white" stroke-width="2" stroke-linecap="round" stroke-linejoin="round"/>
<path fill-rule="evenodd" clip-rule="evenodd" d="M15.3662 17.5625C16.7606 17.5625 17.8911 16.432 17.8911 15.0376C17.8911 13.6431 16.7606 12.5127 15.3662 12.5127C13.9717 12.5127 12.8413 13.6431 12.8413 15.0376C12.8413 16.432 13.9717 17.5625 15.3662 17.5625Z" stroke="white" stroke-width="2" stroke-linecap="round" stroke-linejoin="round"/>
<path fill-rule="evenodd" clip-rule="evenodd" d="M29.0921 13.6411C29.4864 13.9984 29.7113 14.5057 29.7113 15.0379C29.7113 15.57 29.4864 16.0773 29.0921 16.4347C26.6759 18.6231 21.4382 22.6125 15.3662 22.6125C9.29419 22.6125 4.05654 18.6231 1.64026 16.4347C1.24596 16.0773 1.02106 15.57 1.02106 15.0379C1.02106 14.5057 1.24597 13.9984 1.64026 13.641C4.05654 11.4527 9.29419 7.4632 15.3662 7.4632C21.4382 7.4632 26.6759 11.4527 29.0921 13.641V13.6411Z" stroke="white" stroke-width="2" stroke-linecap="round" stroke-linejoin="round"/>
<path d="M1.02106 14.4889C2.95585 5.32402 13.3198 2.30283 21.45 4.38365C24.1324 5.07019 27.1121 7.0703 29.5969 4.7501C30.6065 3.78981 31.0883 2.39991 30.8896 1.02081C32.8717 2.28951 34.7977 4.3474 34.9666 6.81752C35.1959 10.1694 32.2102 12.7792 29.7113 14.4889" stroke="white" stroke-width="2" stroke-linecap="round" stroke-linejoin="round"/>
<path d="M16.8305 7.4633C16.8305 7.4633 23.2711 7.4633 20.9291 2.19365" stroke="white" stroke-width="2" stroke-linecap="round" stroke-linejoin="round"/>
<path d="M21.5138 8.63414C21.5138 8.63414 27.369 9.80517 25.0269 3.3645" stroke="white" stroke-width="2" stroke-linecap="round" stroke-linejoin="round"/>
<path d="M26.7834 11.5617C26.7834 11.5617 32.053 10.3907 28.5399 3.3645" stroke="white" stroke-width="2" stroke-linecap="round" stroke-linejoin="round"/>
</svg>
