<svg width="24" height="22" viewBox="0 0 24 22" fill="none" xmlns="http://www.w3.org/2000/svg">
<path fill-rule="evenodd" clip-rule="evenodd" d="M22.1204 10.9698L13.6791 19.4111L12.3806 18.1126L20.8219 9.6713C22.6117 7.88056 22.6117 4.9676 20.8219 3.17778C19.0321 1.38795 16.1182 1.38795 14.3284 3.17778L2.64087 14.8654C1.56643 15.9398 1.56643 17.6874 2.64087 18.7619C3.68134 19.8023 5.49595 19.8023 6.53641 18.7619L18.2258 7.07334C18.5839 6.71428 18.5839 6.13297 18.2258 5.7739C17.8658 5.41483 17.2845 5.41483 16.9264 5.7739L8.4851 14.2152L7.18658 12.9167L15.6278 4.47538C16.7023 3.40185 18.4499 3.40001 19.5243 4.47538C20.5987 5.54982 20.5987 7.29741 19.5243 8.37186L7.83493 20.0604C6.96894 20.9273 5.81553 21.4057 4.58865 21.4057C3.36176 21.4057 2.20835 20.9273 1.34236 20.0604C-0.447454 18.2706 -0.447454 15.3567 1.34236 13.5669L13.0299 1.87925C15.536 -0.62688 19.6161 -0.625954 22.1204 1.87925C24.6265 4.38446 24.6265 8.46278 22.1204 10.9698H22.1204Z" fill="#666666"/>
</svg>
