<svg width="46" height="46" viewBox="0 0 46 46" fill="none" xmlns="http://www.w3.org/2000/svg">
<path fill-rule="evenodd" clip-rule="evenodd" d="M1.78629 29.0765C1.24048 29.0765 0.694667 28.6795 0.595429 28.1337C0.198476 26.4467 0 24.7596 0 23.0229C0 18.1107 1.53819 13.4465 4.41611 9.47693C4.81306 8.93112 5.60696 8.78226 6.15277 9.22883C6.69858 9.62578 6.84744 10.4197 6.40087 10.9655C3.82068 14.4885 2.48095 18.6565 2.48095 23.0726C2.48095 24.6108 2.62981 26.1489 2.97714 27.6375C3.126 28.2826 2.72905 28.9772 2.03438 29.1261C1.98476 29.0765 1.88552 29.0765 1.78629 29.0765Z" fill="#999999"/>
<path fill-rule="evenodd" clip-rule="evenodd" d="M7.34327 9.17982C7.04556 9.17982 6.74784 9.08058 6.49975 8.83248C6.00356 8.33629 6.00356 7.59201 6.45013 7.09582C7.24403 6.25229 8.08756 5.50801 9.03032 4.81334C9.57613 4.41639 10.37 4.51563 10.767 5.06144C11.1639 5.60724 11.0647 6.40115 10.5189 6.7981C9.72499 7.44315 8.93108 8.0882 8.23641 8.83248C7.98832 9.08058 7.64099 9.17982 7.34327 9.17982Z" fill="#999999"/>
<path fill-rule="evenodd" clip-rule="evenodd" d="M44.8062 24.2637C44.1115 24.2637 43.5657 23.7179 43.5657 23.0233C43.5657 11.7101 34.3365 2.48095 23.0234 2.48095C19.6989 2.48095 16.3744 3.32448 13.3973 4.86267C12.8018 5.16038 12.0576 4.9619 11.7102 4.36648C11.4125 3.77105 11.611 3.02676 12.2064 2.67943C15.4813 0.942762 19.2027 0 22.9738 0C35.6762 0 45.997 10.3208 45.997 23.0233C46.0466 23.7179 45.4512 24.2637 44.8062 24.2637H44.8062Z" fill="#999999"/>
<path fill-rule="evenodd" clip-rule="evenodd" d="M39.1995 38.8024C39.1499 38.8024 39.0506 38.8024 39.001 38.8024C38.3063 38.7032 37.8598 38.0581 38.0086 37.3635C39.5468 28.829 39.2491 22.7754 39.1995 22.1304C38.9514 17.615 36.7682 13.3974 33.2948 10.5691C32.749 10.1226 32.6994 9.37828 33.0963 8.83247C33.4933 8.28666 34.2872 8.23704 34.833 8.634C38.8522 11.9089 41.3331 16.8211 41.6805 21.9815C41.7301 22.6762 42.0278 29.0274 40.44 37.81C40.2911 38.4055 39.7949 38.8024 39.1995 38.8024H39.1995Z" fill="#999999"/>
<path fill-rule="evenodd" clip-rule="evenodd" d="M4.41611 35.4778C4.31688 35.4778 4.21764 35.4778 4.1184 35.4282C3.47335 35.2794 3.0764 34.5847 3.22526 33.9396C4.61459 28.3823 4.41611 24.1647 4.41611 24.1151C3.82069 13.8439 11.7101 5.01171 21.9813 4.41628C24.7103 4.26743 27.4394 4.714 29.97 5.70638C30.615 5.95447 30.9127 6.69876 30.6646 7.29419C30.4165 7.93923 29.6722 8.23695 29.0768 7.98885C26.8936 7.09571 24.5615 6.74838 22.1798 6.84762C13.2979 7.34381 6.4505 15.0348 6.99631 23.9166C6.99631 23.9662 7.2444 28.5312 5.70621 34.4855C5.45811 35.1305 4.96192 35.4778 4.41611 35.4778Z" fill="#999999"/>
<path fill-rule="evenodd" clip-rule="evenodd" d="M33.8398 43.1682C33.7406 43.1682 33.6413 43.1682 33.5421 43.1186C32.897 42.9697 32.4505 42.2751 32.6489 41.63C33.3932 38.7521 33.939 35.8246 34.2864 32.8474C34.3856 32.1528 34.981 31.7062 35.6757 31.7558C36.3704 31.8551 36.8169 32.4505 36.7673 33.1452C36.3704 36.1719 35.7749 39.2483 35.0307 42.2255C34.8818 42.7713 34.3856 43.1682 33.8398 43.1682Z" fill="#999999"/>
<path fill-rule="evenodd" clip-rule="evenodd" d="M36.0236 28.5306C35.2793 28.481 34.7831 27.9352 34.7831 27.2405C34.9319 24.3626 34.8327 22.5763 34.8327 22.3778C34.4358 15.8777 28.8784 10.9158 22.3287 11.2631C21.0882 11.3128 19.8477 11.6105 18.7065 12.057C18.0615 12.3051 17.3668 12.0074 17.1187 11.3624C16.8706 10.7173 17.1683 10.0227 17.8134 9.77457C19.2027 9.22876 20.6913 8.88143 22.2295 8.83181C30.0693 8.286 36.8671 14.3395 37.3137 22.1793C37.3137 22.5267 37.4129 24.3626 37.264 27.3397C37.2144 28.0344 36.6686 28.5306 36.0236 28.5306V28.5306Z" fill="#999999"/>
<path fill-rule="evenodd" clip-rule="evenodd" d="M7.64145 39.6957C7.4926 39.6957 7.39336 39.6957 7.2445 39.6461C6.59945 39.4476 6.25212 38.753 6.4506 38.0583C9.03079 30.3177 8.73307 23.9169 8.73307 23.8672C8.48498 19.6992 10.0728 15.6305 13.0995 12.703C13.5957 12.2068 14.3896 12.2564 14.8362 12.7526C15.2828 13.2488 15.2828 14.0427 14.7866 14.4892C12.3553 16.871 11.0155 20.2451 11.214 23.7184C11.214 23.768 11.5614 30.5658 8.83231 38.8522C8.68345 39.3484 8.18726 39.6957 7.64145 39.6957Z" fill="#999999"/>
<path fill-rule="evenodd" clip-rule="evenodd" d="M28.7296 45.2528C28.6304 45.2528 28.4815 45.2528 28.3326 45.2031C27.6876 45.0047 27.3403 44.31 27.5387 43.6649C29.7716 36.5694 30.8632 28.8784 30.4663 22.6264C30.367 21.3363 29.9701 20.0462 29.2754 19.0042C28.8785 18.4088 29.0769 17.6645 29.6227 17.2676C30.2182 16.8706 30.9625 17.0691 31.3594 17.6149C32.3022 19.0539 32.848 20.7409 32.9472 22.4776C33.3442 29.0273 32.2029 37.016 29.8708 44.4092C29.722 44.9054 29.2258 45.2528 28.7296 45.2528Z" fill="#999999"/>
<path fill-rule="evenodd" clip-rule="evenodd" d="M11.2634 42.5737C11.1146 42.5737 10.9657 42.5737 10.8169 42.4744C10.1718 42.2263 9.82447 41.5317 10.0726 40.8866C13.397 31.7567 13.0497 23.8673 13.0497 23.5199C12.8016 18.0618 17.0192 13.3976 22.4774 13.0999C24.0155 13.0007 25.5041 13.2488 26.8934 13.8442C27.5385 14.0923 27.8362 14.8366 27.5385 15.4816C27.2904 16.1267 26.5461 16.4244 25.9011 16.1267C24.8591 15.6801 23.7178 15.4816 22.5766 15.5312C18.4582 15.7297 15.3322 19.2527 15.5307 23.3711C15.5803 24.2642 15.8284 32.3025 12.4047 41.6805C12.2558 42.2759 11.8092 42.5737 11.2634 42.5737Z" fill="#999999"/>
<path fill-rule="evenodd" clip-rule="evenodd" d="M23.7671 45.9967C23.6183 45.9967 23.519 45.9967 23.3702 45.9471C22.7251 45.7486 22.3778 45.0043 22.5763 44.3593C26.5954 32.6492 26.1488 22.9238 26.1488 22.8246C26.0496 21.0879 24.6106 19.7978 22.874 19.8971C21.1869 19.9963 19.8472 21.4849 19.9465 23.1719C19.9465 23.3704 19.9961 24.5612 19.9465 26.3475C19.8968 27.0422 19.351 27.5384 18.6564 27.5384C17.9617 27.4888 17.4159 26.943 17.4655 26.2483C17.5151 24.5613 17.4655 23.4696 17.4655 23.2712C17.267 20.2444 19.6487 17.6146 22.7251 17.4657C25.8511 17.3169 28.4313 19.5993 28.6298 22.7253C28.6298 22.8246 29.1756 32.9469 24.958 45.2028C24.7595 45.699 24.2633 45.9967 23.7671 45.9967L23.7671 45.9967Z" fill="#999999"/>
<path fill-rule="evenodd" clip-rule="evenodd" d="M15.2327 44.5577C15.0839 44.5577 14.935 44.5081 14.7862 44.4585C14.1411 44.2104 13.8434 43.5157 14.0419 42.8707C15.4808 39.05 16.4732 35.0309 17.019 30.8629C17.1182 30.1682 17.7137 29.7216 18.4083 29.7713C19.103 29.8705 19.5496 30.4659 19.5 31.1606C18.9542 35.5271 17.8625 39.7447 16.374 43.7142C16.1755 44.26 15.7289 44.5577 15.2327 44.5577Z" fill="#999999"/>
<path fill-rule="evenodd" clip-rule="evenodd" d="M19.351 45.6997C19.2022 45.6997 19.0533 45.6997 18.9045 45.6005C18.2594 45.3524 17.9121 44.6577 18.1602 44.0127C18.5075 43.1195 18.8052 42.1768 19.1029 41.234C19.3014 40.589 19.9961 40.192 20.6411 40.3905C21.2862 40.589 21.6831 41.2836 21.4847 41.9287C21.1869 42.921 20.8396 43.8638 20.4923 44.8066C20.3434 45.402 19.8472 45.6997 19.351 45.6997V45.6997Z" fill="#999999"/>
<path fill-rule="evenodd" clip-rule="evenodd" d="M21.535 38.3063C21.4358 38.3063 21.3365 38.3063 21.2373 38.2567C20.5922 38.1079 20.1457 37.4628 20.2945 36.7681C22.0808 28.9779 21.7831 23.1229 21.7335 23.0733C21.6839 22.3786 22.2297 21.7832 22.9243 21.7832C23.619 21.7335 24.2144 22.2794 24.2144 22.974C24.2144 23.2221 24.5618 29.1764 22.6762 37.3636C22.6266 37.9094 22.0808 38.3063 21.535 38.3063H21.535Z" fill="#999999"/>
</svg>
