<svg width="327" height="154" viewBox="0 0 327 154" fill="none" xmlns="http://www.w3.org/2000/svg">
<mask id="mask0_0_3854" style="mask-type:luminance" maskUnits="userSpaceOnUse" x="0" y="0" width="328" height="155">
<path fill-rule="evenodd" clip-rule="evenodd" d="M0 0H328V155H0V0Z" fill="white"/>
</mask>
<g mask="url(#mask0_0_3854)">
<path d="M0.5 2C0.5 1.17157 1.17157 0.5 2 0.5H70C70.8284 0.5 71.5 1.17157 71.5 2V29C71.5 29.8284 70.8284 30.5 70 30.5H2C1.17157 30.5 0.5 29.8284 0.5 29V2Z" fill="white" stroke="#CCCCCC"/>
<path d="M85.5 2C85.5 1.17157 86.1716 0.5 87 0.5H155C155.828 0.5 156.5 1.17157 156.5 2V29C156.5 29.8284 155.828 30.5 155 30.5H87C86.1716 30.5 85.5 29.8284 85.5 29V2Z" fill="white" stroke="#CCCCCC"/>
<path d="M170.5 2C170.5 1.17157 171.172 0.5 172 0.5H240C240.828 0.5 241.5 1.17157 241.5 2V29C241.5 29.8284 240.828 30.5 240 30.5H172C171.172 30.5 170.5 29.8284 170.5 29V2Z" fill="white" stroke="#CCCCCC"/>
<path d="M255.5 2C255.5 1.17157 256.172 0.5 257 0.5H325C325.828 0.5 326.5 1.17157 326.5 2V29C326.5 29.8284 325.828 30.5 325 30.5H257C256.172 30.5 255.5 29.8284 255.5 29V2Z" fill="white" stroke="#CCCCCC"/>
<path d="M0.5 43C0.5 42.1716 1.17157 41.5 2 41.5H70C70.8284 41.5 71.5 42.1716 71.5 43V70C71.5 70.8284 70.8284 71.5 70 71.5H2C1.17157 71.5 0.5 70.8284 0.5 70V43Z" fill="white" stroke="#CCCCCC"/>
<path d="M85.5 43C85.5 42.1716 86.1716 41.5 87 41.5H155C155.828 41.5 156.5 42.1716 156.5 43V70C156.5 70.8284 155.828 71.5 155 71.5H87C86.1716 71.5 85.5 70.8284 85.5 70V43Z" fill="white" stroke="#CCCCCC"/>
<path d="M170.5 43C170.5 42.1716 171.172 41.5 172 41.5H240C240.828 41.5 241.5 42.1716 241.5 43V70C241.5 70.8284 240.828 71.5 240 71.5H172C171.172 71.5 170.5 70.8284 170.5 70V43Z" fill="white" stroke="#CCCCCC"/>
<path d="M255.5 43C255.5 42.1716 256.172 41.5 257 41.5H325C325.828 41.5 326.5 42.1716 326.5 43V70C326.5 70.8284 325.828 71.5 325 71.5H257C256.172 71.5 255.5 70.8284 255.5 70V43Z" fill="white" stroke="#CCCCCC"/>
<path d="M0.5 84C0.5 83.1716 1.17157 82.5 2 82.5H70C70.8284 82.5 71.5 83.1716 71.5 84V111C71.5 111.828 70.8284 112.5 70 112.5H2C1.17157 112.5 0.5 111.828 0.5 111V84Z" fill="white" stroke="#CCCCCC"/>
<path d="M85.5 84C85.5 83.1716 86.1716 82.5 87 82.5H155C155.828 82.5 156.5 83.1716 156.5 84V111C156.5 111.828 155.828 112.5 155 112.5H87C86.1716 112.5 85.5 111.828 85.5 111V84Z" fill="white" stroke="#CCCCCC"/>
<path d="M170.5 84C170.5 83.1716 171.172 82.5 172 82.5H240C240.828 82.5 241.5 83.1716 241.5 84V111C241.5 111.828 240.828 112.5 240 112.5H172C171.172 112.5 170.5 111.828 170.5 111V84Z" fill="white" stroke="#CCCCCC"/>
<path d="M255.5 84C255.5 83.1716 256.172 82.5 257 82.5H325C325.828 82.5 326.5 83.1716 326.5 84V111C326.5 111.828 325.828 112.5 325 112.5H257C256.172 112.5 255.5 111.828 255.5 111V84Z" fill="white" stroke="#CCCCCC"/>
<path d="M0.5 125C0.5 124.172 1.17157 123.5 2 123.5H70C70.8284 123.5 71.5 124.172 71.5 125V152C71.5 152.828 70.8284 153.5 70 153.5H2C1.17157 153.5 0.5 152.828 0.5 152V125Z" fill="white" stroke="#CCCCCC"/>
<path d="M85.5 125C85.5 124.172 86.1716 123.5 87 123.5H155C155.828 123.5 156.5 124.172 156.5 125V152C156.5 152.828 155.828 153.5 155 153.5H87C86.1716 153.5 85.5 152.828 85.5 152V125Z" fill="white" stroke="#CCCCCC"/>
<path d="M170.5 125C170.5 124.172 171.172 123.5 172 123.5H240C240.828 123.5 241.5 124.172 241.5 125V152C241.5 152.828 240.828 153.5 240 153.5H172C171.172 153.5 170.5 152.828 170.5 152V125Z" fill="white" stroke="#CCCCCC"/>
<path d="M255.5 125C255.5 124.172 256.172 123.5 257 123.5H325C325.828 123.5 326.5 124.172 326.5 125V152C326.5 152.828 325.828 153.5 325 153.5H257C256.172 153.5 255.5 152.828 255.5 152V125Z" fill="white" stroke="#CCCCCC"/>
</g>
</svg>
