<svg width="24" height="14" viewBox="0 0 24 14" fill="none" xmlns="http://www.w3.org/2000/svg">
<path fill-rule="evenodd" clip-rule="evenodd" d="M0 3C0 1.34315 1.34315 0 3 0L14 0C15.6569 0 17 1.34315 17 3V11C17 12.6569 15.6569 14 14 14H3C1.34315 14 0 12.6569 0 11L0 3Z" fill="#414141"/>
<path fill-rule="evenodd" clip-rule="evenodd" d="M17.4849 8.69412V5.59268L21.8268 1.87097C21.8268 1.87097 23.0676 0.881441 23.0676 2.49127C23.0616 2.48367 23.0676 11.7956 23.0676 11.7956C23.0676 11.7956 22.5624 13.1512 21.2067 11.7956C21.1919 11.7542 17.4849 8.69412 17.4849 8.69412Z" fill="#414141"/>
</svg>
