<svg width="13" height="12" viewBox="0 0 13 12" fill="none" xmlns="http://www.w3.org/2000/svg">
<path fill-rule="evenodd" clip-rule="evenodd" d="M6.28118 0C6.05032 0 5.84537 0.147509 5.77208 0.366422L4.50907 4.13771L0.532031 4.17341C0.301306 4.17557 0.0975683 4.32495 0.0262879 4.5444C-0.0449821 4.76399 0.0319295 5.0045 0.217418 5.1418L3.41385 7.50835L2.21889 11.3018C2.14963 11.5219 2.22882 11.7618 2.41552 11.8975C2.50947 11.9658 2.62033 12 2.73106 12C2.84019 12 2.94944 11.9667 3.04271 11.9003L6.28116 9.59157L9.51974 11.9003C9.61301 11.9667 9.72214 12 9.83139 12C9.94212 12 10.0528 11.9658 10.1469 11.8975C10.3336 11.7618 10.4128 11.5219 10.3434 11.3018L9.14848 7.50835L12.345 5.1418C12.5305 5.0045 12.6074 4.76398 12.5362 4.5444C12.4648 4.32495 12.2612 4.17557 12.0303 4.17341L8.05325 4.13771L6.79024 0.366422C6.71696 0.147509 6.51201 0 6.28115 0" fill="#FE9654"/>
</svg>
