<svg width="30" height="23" viewBox="0 0 30 23" fill="none" xmlns="http://www.w3.org/2000/svg">
<path fill-rule="evenodd" clip-rule="evenodd" d="M10.319 4.73213H28.1433C29.1831 4.73213 30 3.98845 30 3.04194C30 2.09544 29.1831 1.35175 28.1433 1.35175H10.319C9.2792 1.35175 8.46226 2.09543 8.46226 3.04194C8.46226 3.98844 9.2792 4.73213 10.319 4.73213Z" fill="white"/>
<path fill-rule="evenodd" clip-rule="evenodd" d="M2.7043 14.2091C4.19785 14.2091 5.4086 12.9983 5.4086 11.5048C5.4086 10.0112 4.19785 8.80047 2.7043 8.80047C1.21076 8.80047 0 10.0112 0 11.5048C0 12.9983 1.21076 14.2091 2.7043 14.2091Z" fill="white"/>
<path fill-rule="evenodd" clip-rule="evenodd" d="M2.7043 5.4086C4.19785 5.4086 5.4086 4.19785 5.4086 2.7043C5.4086 1.21076 4.19785 0 2.7043 0C1.21076 0 0 1.21076 0 2.7043C0 4.19785 1.21076 5.4086 2.7043 5.4086Z" fill="white"/>
<path fill-rule="evenodd" clip-rule="evenodd" d="M28.1433 9.81506H10.319C9.27921 9.81506 8.46226 10.5587 8.46226 11.5052C8.46226 12.4517 9.2792 13.1954 10.319 13.1954H28.1433C29.1831 13.1954 30 12.4517 30 11.5052C30 10.5587 29.1831 9.81506 28.1433 9.81506Z" fill="white"/>
<path fill-rule="evenodd" clip-rule="evenodd" d="M2.7043 22.6715C4.19785 22.6715 5.4086 21.4608 5.4086 19.9672C5.4086 18.4737 4.19785 17.2629 2.7043 17.2629C1.21076 17.2629 0 18.4737 0 19.9672C0 21.4608 1.21076 22.6715 2.7043 22.6715Z" fill="white"/>
<path fill-rule="evenodd" clip-rule="evenodd" d="M28.1433 18.2773H10.319C9.27921 18.2773 8.46226 19.021 8.46226 19.9675C8.46226 20.914 9.2792 21.6577 10.319 21.6577H28.1433C29.1831 21.6577 30 20.914 30 19.9675C30 19.021 29.1831 18.2773 28.1433 18.2773Z" fill="white"/>
</svg>
