<svg width="24" height="17" viewBox="0 0 24 17" fill="none" xmlns="http://www.w3.org/2000/svg">
<path fill-rule="evenodd" clip-rule="evenodd" d="M24 1.33333C24 1.7 23.4857 2 22.8571 2H1.14285C0.51428 2 0 1.7 0 1.33333V0.66667C0 0.3 0.51428 0 1.14285 0H22.8571C23.4857 0 24 0.3 24 0.66667V1.33333Z" fill="white"/>
<path fill-rule="evenodd" clip-rule="evenodd" d="M24 8.77632C24 9.14299 23.4857 9.44299 22.8571 9.44299H1.14285C0.51428 9.44299 0 9.14299 0 8.77632V8.10966C0 7.74299 0.51428 7.44299 1.14285 7.44299H22.8571C23.4857 7.44299 24 7.74299 24 8.10966V8.77632Z" fill="white"/>
<path fill-rule="evenodd" clip-rule="evenodd" d="M24 16.2183C24 16.585 23.4857 16.885 22.8571 16.885H1.14285C0.51428 16.885 0 16.585 0 16.2183V15.5517C0 15.185 0.51428 14.885 1.14285 14.885H22.8571C23.4857 14.885 24 15.185 24 15.5517V16.2183Z" fill="white"/>
</svg>
