<svg width="25" height="25" viewBox="0 0 25 25" fill="none" xmlns="http://www.w3.org/2000/svg">
<path fill-rule="evenodd" clip-rule="evenodd" d="M24.691 2.26388C24.8913 2.01627 25.0004 1.70736 25 1.38889C25 0.621823 24.3782 0 23.6111 0H1.38892C0.823997 0.00114355 0.316052 0.344355 0.104203 0.868061C0.0341556 1.0327 -0.00129456 1.20998 3.61196e-05 1.3889C3.61196e-05 1.71058 0.111709 2.02231 0.316 2.27083L1.19449 3.34376L6.14935 9.39237L9.29171 13.2118C9.57149 13.4785 9.72752 13.8496 9.72227 14.2361V23.6111C9.72227 24.3782 10.3441 25 11.1112 25C11.3987 24.9994 11.6789 24.9097 11.9132 24.7431L11.9966 24.6806L14.6598 22.6806L14.7362 22.625C15.0768 22.3628 15.2768 21.9576 15.2778 21.5278V14.2361C15.2774 13.8574 15.4317 13.4949 15.7049 13.2326L18.8507 9.39236L24.6841 2.27083L24.691 2.26388Z" fill="white"/>
</svg>
