<svg width="18" height="18" viewBox="0 0 18 18" fill="none" xmlns="http://www.w3.org/2000/svg">
<path fill-rule="evenodd" clip-rule="evenodd" d="M6.55078 11.4492C7.71019 12.6087 9.01454 13.5507 10.4058 14.2608L12.6522 12.0145C12.9348 11.7319 13.3551 11.6449 13.7102 11.7681C14.7754 12.1232 15.8768 12.3116 16.9783 12.355C17.2392 12.355 17.4928 12.4637 17.6884 12.6594C17.8913 12.8623 17.9928 13.1232 17.9928 13.384L17.9928 16.9782C18 17.2318 17.8986 17.4927 17.6957 17.6956C17.4928 17.8985 17.2319 18 16.971 18C12.6667 17.884 8.39135 16.1884 5.1015 12.8985C1.81166 9.60867 0.116009 5.33332 6.83783e-05 1.02898C6.80328e-05 0.76811 0.101517 0.507241 0.304415 0.304343C0.507313 0.101445 0.768182 -3.93058e-06 1.02905 -3.93058e-06L4.62324 -3.93058e-06C4.88411 -3.93058e-06 5.14498 0.101445 5.34788 0.304343C5.54353 0.499995 5.64498 0.760863 5.65223 1.01449C5.68846 2.12318 5.89136 3.22463 6.24643 4.28984C6.36962 4.64491 6.28991 5.05795 6.00005 5.34781L3.75368 7.59418C4.44933 8.98548 5.39136 10.2898 6.55078 11.4492Z" fill="white"/>
</svg>
