<svg width="272" height="44" viewBox="0 0 272 44" fill="none" xmlns="http://www.w3.org/2000/svg">
<path fill-rule="evenodd" clip-rule="evenodd" d="M174 44C186.15 44 196 34.1503 196 22C196 9.84974 186.15 0 174 0C161.85 0 152 9.84974 152 22C152 34.1503 161.85 44 174 44Z" fill="#FD6C57"/>
<path fill-rule="evenodd" clip-rule="evenodd" d="M162 17.5C162 15.8431 163.343 14.5 165 14.5H178.048C179.705 14.5 181.048 15.8431 181.048 17.5V27.1865C181.048 28.8433 179.705 30.1865 178.048 30.1865H165C163.343 30.1865 162 28.8433 162 27.1865V17.5Z" fill="white"/>
<path fill-rule="evenodd" clip-rule="evenodd" d="M181.623 24.1803V20.7231L186.463 16.5744C186.463 16.5744 187.846 15.4714 187.846 17.2659C187.84 17.2574 187.846 27.6375 187.846 27.6375C187.846 27.6375 187.283 29.1487 185.772 27.6375C185.755 27.5914 181.623 24.1803 181.623 24.1803V24.1803Z" fill="white"/>
<path fill-rule="evenodd" clip-rule="evenodd" d="M98 44C110.15 44 120 34.1503 120 22C120 9.84974 110.15 0 98 0C85.8497 0 76 9.84974 76 22C76 34.1503 85.8497 44 98 44Z" fill="#FE9654"/>
<path fill-rule="evenodd" clip-rule="evenodd" d="M250 0C262.15 0 272 9.84974 272 22C272 34.1503 262.15 44 250 44C237.85 44 228 34.1503 228 22C228 9.84974 237.85 0 250 0Z" fill="#615DD9"/>
<path fill-rule="evenodd" clip-rule="evenodd" d="M22 44C34.1503 44 44 34.1503 44 22C44 9.84974 34.1503 0 22 0C9.84974 0 0 9.84974 0 22C0 34.1503 9.84974 44 22 44Z" fill="#3885FF"/>
<path fill-rule="evenodd" clip-rule="evenodd" d="M22.0087 12C14.548 12 8.5 16.3322 8.5 21.6762C8.5 24.8272 10.6033 27.6261 13.8586 29.3929C11.8852 31.7959 9.23517 33.186 9.23517 33.186C13.4311 33.0429 16.0219 31.9558 17.5972 30.824C18.9798 31.1661 20.4638 31.3523 22.0087 31.3523C29.4693 31.3523 35.5173 27.0202 35.5173 21.6762C35.5173 16.3322 29.4693 12 22.0087 12Z" fill="white"/>
</svg>
