<svg width="17" height="17" viewBox="0 0 17 17" fill="none" xmlns="http://www.w3.org/2000/svg">
<path fill-rule="evenodd" clip-rule="evenodd" d="M0.904396 4.68352C2.34672 1.81145 5.28613 -0.00100938 8.50002 4.21735e-07C10.7908 4.21735e-07 12.7152 0.841502 14.1865 2.21425L11.7496 4.65206C10.8681 3.80971 9.74782 3.38045 8.50002 3.38045C6.28577 3.38045 4.41151 4.87646 3.74426 6.88501C3.57425 7.39501 3.47735 7.93901 3.47735 8.50001C3.47735 9.06101 3.57425 9.60501 3.74426 10.115C4.41236 12.1244 6.28577 13.6196 8.50002 13.6196C9.64327 13.6196 10.6165 13.3178 11.3781 12.8078C12.2703 12.2204 12.8834 11.2935 13.0747 10.2425H8.50002V6.9547H16.5053C16.6056 7.51061 16.66 8.0903 16.66 8.69296C16.66 11.2821 15.7335 13.4615 14.1253 14.9405C12.7194 16.2393 10.795 17 8.50002 17C3.8048 17.0019 -0.00187611 13.1952 6.93691e-07 8.50002C6.93691e-07 7.12811 0.328105 5.83101 0.904406 4.68351L0.904396 4.68352Z" fill="white"/>
</svg>
