<svg width="28" height="25" viewBox="0 0 28 25" fill="none" xmlns="http://www.w3.org/2000/svg">
<path fill-rule="evenodd" clip-rule="evenodd" d="M7.99996 11.9999C9.10453 11.9999 9.99995 11.1045 9.99995 9.99995C9.99995 8.89539 9.10453 7.99996 7.99996 7.99996C6.8954 7.99996 5.99997 8.89539 5.99997 9.99995C5.99997 11.1045 6.8954 11.9999 7.99996 11.9999Z" fill="#FD6C57"/>
<path fill-rule="evenodd" clip-rule="evenodd" d="M13.9999 11.9999C15.1045 11.9999 15.9999 11.1045 15.9999 9.99995C15.9999 8.89539 15.1045 7.99996 13.9999 7.99996C12.8954 7.99996 11.9999 8.89539 11.9999 9.99995C11.9999 11.1045 12.8954 11.9999 13.9999 11.9999Z" fill="#FD6C57"/>
<path fill-rule="evenodd" clip-rule="evenodd" d="M19.9999 11.9999C21.1045 11.9999 21.9999 11.1045 21.9999 9.99995C21.9999 8.89539 21.1045 7.99996 19.9999 7.99996C18.8953 7.99996 17.9999 8.89539 17.9999 9.99995C17.9999 11.1045 18.8953 11.9999 19.9999 11.9999Z" fill="#FD6C57"/>
</svg>
