<svg width="15" height="13" viewBox="0 0 15 13" fill="none" xmlns="http://www.w3.org/2000/svg">
<path fill-rule="evenodd" clip-rule="evenodd" d="M12.0817 11.0465L10.5691 9.53392C9.80087 10.2419 8.80532 10.6297 7.74672 10.6297C6.65058 10.6297 5.60402 10.1912 4.80042 9.39544C4.24084 8.83586 3.86046 8.12752 3.69932 7.34659C3.67666 7.23573 3.70498 7.12098 3.77723 7.03209C3.85161 6.94107 3.96175 6.88866 4.07897 6.88866H4.96298C4.96829 6.88866 4.98458 6.88866 4.99273 6.86883C5.00087 6.849 4.98954 6.83766 4.98564 6.83412L2.52453 4.36452C2.51816 4.35814 2.51001 4.35496 2.50186 4.35496C2.49372 4.35496 2.48557 4.35814 2.4792 4.36452L0.00996304 6.82527C0.00606215 6.82916 -0.005263 6.84049 0.00287433 6.86033C0.0110221 6.88016 0.0273073 6.88016 0.0326238 6.88016H1.07494C1.26866 6.88016 1.433 7.02678 1.45637 7.22087C1.62991 8.64285 2.25289 9.92599 3.2573 10.9311C4.4643 12.1331 6.05875 12.7951 7.74635 12.7951C9.35392 12.8096 10.9023 12.2026 12.0831 11.0933L12.2067 10.9216L12.0817 11.0465Z" fill="white"/>
<path fill-rule="evenodd" clip-rule="evenodd" d="M14.9656 5.48783L13.6906 5.5484L13.6747 5.38053C13.3708 2.2203 10.648 -0.139501 7.46934 0.00641561C5.95351 0.0868137 4.54217 0.724661 3.49667 1.80274L3.38192 1.97982L3.50056 1.84842L4.95229 3.16167C4.96575 3.17476 4.98594 3.16875 4.99833 3.15671C5.69533 2.46821 6.58606 2.07685 7.57453 2.02479C7.63297 2.0223 7.69141 2.02089 7.74914 2.02089C9.61949 2.02089 11.2571 3.36778 11.5996 5.21723C11.6195 5.32384 11.5918 5.43434 11.5235 5.52005C11.4534 5.60823 11.3489 5.6617 11.2362 5.66702L10.4121 5.70492C10.4068 5.70492 10.3905 5.70598 10.3834 5.72616C10.3763 5.74635 10.388 5.75734 10.3919 5.76087L12.7801 7.93297L12.8254 7.93084L14.9911 5.54023C14.9947 5.53633 15.0056 5.52429 14.9964 5.50481C14.9869 5.48674 14.972 5.48851 14.9656 5.4878V5.48783Z" fill="white"/>
</svg>
