<svg width="14" height="21" viewBox="0 0 14 21" fill="none" xmlns="http://www.w3.org/2000/svg">
<path fill-rule="evenodd" clip-rule="evenodd" d="M6.99988 13.9995C8.06946 13.9995 8.98477 13.6187 9.74631 12.8575C10.5077 12.0962 10.8885 11.1804 10.8885 10.111V3.88894C10.8885 2.81945 10.508 1.90405 9.74631 1.14244C8.98477 0.381 8.06946 0 6.99988 0C5.93045 0 5.015 0.381 4.25344 1.14244C3.49181 1.90393 3.11108 2.81946 3.11108 3.88894V10.111C3.11108 11.1804 3.492 12.0962 4.25344 12.8574C5.0149 13.6187 5.93046 13.9995 6.99988 13.9995V13.9995Z" fill="white"/>
<path fill-rule="evenodd" clip-rule="evenodd" d="M13.7687 8.00889C13.6152 7.85494 13.4326 7.77795 13.2219 7.77795C13.0114 7.77795 12.8292 7.85495 12.6751 8.00889C12.5213 8.16281 12.4443 8.34507 12.4443 8.55564V10.1113C12.4443 11.6101 11.9115 12.8922 10.8461 13.9575C9.78103 15.0229 8.49885 15.5556 6.99992 15.5556C5.50103 15.5556 4.21898 15.0229 3.15355 13.9575C2.08823 12.8925 1.55562 11.6102 1.55562 10.1113V8.55564C1.55562 8.34507 1.47862 8.1628 1.32475 8.00889C1.17078 7.85494 0.9887 7.77795 0.77792 7.77795C0.56714 7.77795 0.38483 7.85495 0.23096 8.00889C0.07696 8.16281 0 8.34507 0 8.55564V10.1113C0 11.9018 0.59762 13.4594 1.7925 14.7839C2.98742 16.1084 4.46396 16.8679 6.22215 17.0622V18.6665H3.11112C2.90046 18.6665 2.71821 18.7436 2.56429 18.8976C2.41034 19.0514 2.33334 19.2337 2.33334 19.4444C2.33334 19.6547 2.41034 19.8374 2.56429 19.9912C2.71821 20.1451 2.90046 20.2223 3.11112 20.2223H10.8885C11.0991 20.2223 11.2817 20.1451 11.4354 19.9912C11.5895 19.8374 11.6665 19.6547 11.6665 19.4444C11.6665 19.2338 11.5895 19.0514 11.4354 18.8976C11.2817 18.7436 11.0992 18.6665 10.8885 18.6665H7.77789V17.0622C9.53579 16.8679 11.0122 16.1084 12.2072 14.7839C13.4023 13.4594 14.0001 11.9018 14.0001 10.1113V8.55564C14.0001 8.3451 13.9229 8.16297 13.7687 8.00889H13.7687Z" fill="white"/>
</svg>
