<svg width="65" height="24" viewBox="0 0 65 24" fill="none" xmlns="http://www.w3.org/2000/svg">
<path fill-rule="evenodd" clip-rule="evenodd" d="M0 12C0 5.37258 5.37258 0 12 0L52.1445 0C58.7719 0 64.1445 5.37258 64.1445 12C64.1445 18.6274 58.7719 24 52.1445 24H12C5.37258 24 0 18.6274 0 12H0Z" fill="#FD6C57"/>
<path fill-rule="evenodd" clip-rule="evenodd" d="M13 10.205C13 9.10045 13.8954 8.20502 15 8.20502H20.3094C21.414 8.20502 22.3094 9.10045 22.3094 10.205V13.8716C22.3094 14.9762 21.414 15.8716 20.3094 15.8716H15C13.8954 15.8716 13 14.9762 13 13.8716V10.205Z" fill="white"/>
<path fill-rule="evenodd" clip-rule="evenodd" d="M22.575 12.9662V11.2678L24.9526 9.22979C24.9526 9.22979 25.6321 8.6879 25.6321 9.56947C25.6289 9.56532 25.6321 14.6646 25.6321 14.6646C25.6321 14.6646 25.3555 15.407 24.613 14.6646C24.6051 14.642 22.575 12.9662 22.575 12.9662Z" fill="white"/>
</svg>
