<svg width="24" height="24" viewBox="0 0 24 24" fill="none" xmlns="http://www.w3.org/2000/svg">
<path fill-rule="evenodd" clip-rule="evenodd" d="M23.7421 12.0196C23.7421 11.174 23.0567 10.4886 22.2112 10.4886H5.42024L11.6436 4.68623C12.0663 4.31868 12.2545 3.74967 12.1343 3.2026C12.0142 2.65553 11.6049 2.21775 11.0671 2.06112C10.5293 1.90449 9.94898 2.05402 9.55386 2.45101L0.48668 10.8981C0.17626 11.1877 0 11.5932 0 12.0177C0 12.4422 0.17626 12.8476 0.48668 13.1372L9.55386 21.5882C10.1722 22.1652 11.1412 22.1318 11.7183 21.5135C12.2954 20.8952 12.2619 19.9262 11.6436 19.3491L5.42024 13.5506H22.2112C23.0567 13.5506 23.7421 12.8651 23.7421 12.0196Z" fill="#333333"/>
</svg>
