<svg width="19" height="18" viewBox="0 0 19 18" fill="none" xmlns="http://www.w3.org/2000/svg">
<path fill-rule="evenodd" clip-rule="evenodd" d="M14.4276 17.7541L9.95684 14.5415C9.82098 14.4435 9.66048 14.3949 9.49997 14.3949C9.33947 14.3949 9.17896 14.4435 9.0431 14.5415L4.57235 17.7541C4.42765 17.8584 4.2703 17.9039 4.11801 17.9039C3.63713 17.9039 3.2068 17.4445 3.38058 16.9149L5.09747 11.689C5.19858 11.38 5.08736 11.042 4.81943 10.8499L0.316446 7.61387C-0.284503 7.18228 0.0276646 6.2502 0.772681 6.2502H6.32147C6.65702 6.2502 6.95402 6.03852 7.05639 5.72635L8.76506 0.523852C8.88007 0.175038 9.1897 0 9.49997 0C9.81025 0 10.1199 0.175038 10.2349 0.523852L11.9436 5.72635C12.0459 6.03852 12.3429 6.2502 12.6785 6.2502H18.2273C18.9723 6.2502 19.2844 7.18227 18.6835 7.61387L14.1805 10.8499C13.9126 11.042 13.8014 11.38 13.9025 11.689L15.6194 16.9149C15.7931 17.4445 15.3628 17.9039 14.8819 17.9039C14.7297 17.9039 14.5723 17.8584 14.4276 17.7541Z" fill="#CCCCCC"/>
</svg>
