<svg width="7" height="9" viewBox="0 0 7 9" fill="none" xmlns="http://www.w3.org/2000/svg">
<path fill-rule="evenodd" clip-rule="evenodd" d="M6.30853 7.19316C5.8031 7.34867 5.41431 7.46531 5.02552 7.46531C4.63673 7.42644 4.24792 7.3098 3.78138 7.1154C3.54812 7.03764 3.31483 6.92101 3.04269 6.80437C2.77054 6.68773 2.42062 6.60998 2.0707 6.57108C1.7208 6.57108 1.37087 6.60996 1.05983 6.72661C0.904323 6.76549 0.748812 6.84325 0.593292 6.92101C0.437771 6.99876 0.321141 7.07652 0.165631 7.23203C0.0489902 7.34867 -0.0287594 7.50419 0.01011 7.69859C0.0489902 7.97074 0.321141 8.12625 0.554411 8.04849L0.748823 8.00961C0.787693 8.00961 0.943224 7.93186 1.02097 7.93186C1.13761 7.89297 1.21536 7.89297 1.332 7.89297C1.52641 7.8541 1.72081 7.89297 1.9152 7.89297C2.10961 7.93186 2.26512 7.97073 2.45951 8.08737L3.19822 8.43728C3.47037 8.55392 3.74254 8.63168 4.05357 8.70944C4.36461 8.78719 4.71451 8.82607 5.02554 8.78719C5.72537 8.74831 6.30855 8.43727 6.73623 8.04848C6.89175 7.93185 6.9695 7.69858 6.89175 7.50417C6.85286 7.2709 6.58071 7.11538 6.30855 7.19314L6.30853 7.19316Z" fill="white"/>
<path fill-rule="evenodd" clip-rule="evenodd" d="M6.30853 3.92671C5.8031 4.08222 5.41431 4.19886 5.02552 4.19886C4.63673 4.15998 4.24792 4.04335 3.78138 3.84895C3.54812 3.77119 3.31483 3.65456 3.04269 3.53792C2.77054 3.42128 2.42062 3.34352 2.0707 3.30464C1.7208 3.30464 1.37087 3.34352 1.05983 3.46017C0.904323 3.49904 0.748812 3.5768 0.593292 3.65456C0.437771 3.73231 0.321141 3.81007 0.165631 3.96559C0.0489902 4.08223 -0.0287594 4.23775 0.01011 4.43214C0.0489902 4.70429 0.321141 4.85981 0.554411 4.78206L0.748823 4.74317C0.787693 4.74317 0.943224 4.66542 1.02097 4.66542C1.13761 4.62654 1.21536 4.62654 1.332 4.62654C1.52641 4.58766 1.72081 4.62654 1.9152 4.62654C2.10961 4.66542 2.26512 4.7043 2.45951 4.82094L3.19822 5.17086C3.47037 5.2875 3.74254 5.40414 4.05357 5.48189C4.36461 5.55965 4.71451 5.59853 5.02554 5.55965C5.72537 5.52077 6.30855 5.20974 6.73623 4.82094C6.89175 4.7043 6.9695 4.47103 6.89175 4.27663C6.85286 3.9656 6.58071 3.81009 6.30855 3.92673L6.30853 3.92671Z" fill="white"/>
<path fill-rule="evenodd" clip-rule="evenodd" d="M0.632127 1.47739L0.826528 1.43851C0.865397 1.43851 1.02093 1.36076 1.09868 1.36076C1.21532 1.32188 1.29307 1.32188 1.4097 1.32188C1.60411 1.283 1.7985 1.32188 1.9929 1.32188C2.1873 1.36076 2.34281 1.39964 2.53721 1.51627L3.27593 1.86619C3.54808 1.98283 3.82024 2.09946 4.13127 2.17722C4.4423 2.25498 4.79221 2.29386 5.10323 2.25498C5.80308 2.2161 6.38626 1.90507 6.81393 1.51627C6.96945 1.39963 7.04719 1.16636 6.96945 0.971962C6.8917 0.699811 6.58066 0.583171 6.34738 0.660931H6.30849C5.84195 0.816452 5.41426 0.933082 5.06436 0.894213C4.67557 0.855332 4.28677 0.738692 3.82024 0.544301C3.58696 0.466541 3.3537 0.3499 3.08153 0.23327C2.80938 0.116641 2.45946 0.0388802 2.10956 0C1.75964 0 1.40972 0.0388802 1.09869 0.155521C0.943179 0.194401 0.787658 0.272161 0.632137 0.349911C0.476638 0.427672 0.359987 0.505432 0.204477 0.660942C0.0878467 0.777583 0.0100755 0.933093 0.0489665 1.12749C0.126716 1.36076 0.359997 1.51629 0.632137 1.4774L0.632127 1.47739Z" fill="white"/>
</svg>
