<svg width="343" height="32" viewBox="0 0 343 32" fill="none" xmlns="http://www.w3.org/2000/svg">
<path d="M0.5 16C0.5 7.43959 7.43959 0.5 16 0.5H92C100.56 0.5 107.5 7.43959 107.5 16C107.5 24.5604 100.56 31.5 92 31.5H16C7.43959 31.5 0.5 24.5604 0.5 16Z" stroke="#CCCCCC"/>
<path fill-rule="evenodd" clip-rule="evenodd" d="M118 16C118 7.16344 125.163 0 134 0L210 0C218.837 0 226 7.16344 226 16C226 24.8366 218.837 32 210 32H134C125.163 32 118 24.8366 118 16V16Z" fill="#FD6C57"/>
<path d="M235.5 16C235.5 7.43959 242.44 0.5 251 0.5H327C335.56 0.5 342.5 7.43959 342.5 16C342.5 24.5604 335.56 31.5 327 31.5H251C242.44 31.5 235.5 24.5604 235.5 16Z" stroke="#CCCCCC"/>
</svg>
