<svg width="15" height="18" viewBox="0 0 15 18" fill="none" xmlns="http://www.w3.org/2000/svg">
<path fill-rule="evenodd" clip-rule="evenodd" d="M1.78549 0.898109V2.76976C1.78549 3.26614 2.18721 3.66787 2.6836 3.66787C3.17999 3.66787 3.58171 3.26614 3.58171 2.76976V0.898109C3.58171 0.401728 3.17999 0 2.6836 0C2.18722 0 1.78549 0.401728 1.78549 0.898109Z" fill="#666666"/>
<path fill-rule="evenodd" clip-rule="evenodd" d="M10.7663 0.898109V2.76976C10.7663 3.26614 11.1681 3.66787 11.6644 3.66787C12.1608 3.66787 12.5625 3.26614 12.5625 2.76976V0.898109C12.5625 0.401728 12.1608 0 11.6644 0C11.1681 0 10.7663 0.401728 10.7663 0.898109Z" fill="#666666"/>
<path fill-rule="evenodd" clip-rule="evenodd" d="M0 9.01891H3.59243V12.6113H0V9.01891Z" fill="#666666"/>
<path fill-rule="evenodd" clip-rule="evenodd" d="M0 14.4075H3.59243V17.9999H0V14.4075Z" fill="#666666"/>
<path fill-rule="evenodd" clip-rule="evenodd" d="M5.38855 9.01891H8.98098V12.6113H5.38855V9.01891Z" fill="#666666"/>
<path fill-rule="evenodd" clip-rule="evenodd" d="M5.38855 14.4075H8.98098V17.9999H5.38855V14.4075Z" fill="#666666"/>
<path fill-rule="evenodd" clip-rule="evenodd" d="M10.7771 9.01891H14.3695V12.6113H10.7771V9.01891Z" fill="#666666"/>
<path fill-rule="evenodd" clip-rule="evenodd" d="M10.7771 14.4075H14.3695V17.9999H10.7771V14.4075Z" fill="#666666"/>
</svg>
