<svg width="344" height="488" viewBox="0 0 344 488" fill="none" xmlns="http://www.w3.org/2000/svg">
<mask id="mask0_0_1379" style="mask-type:luminance" maskUnits="userSpaceOnUse" x="0" y="0" width="359" height="488">
<path fill-rule="evenodd" clip-rule="evenodd" d="M0 0H359V488H0V0Z" fill="white"/>
</mask>
<g mask="url(#mask0_0_1379)">
<path fill-rule="evenodd" clip-rule="evenodd" d="M0 10C0 4.47715 4.47715 0 10 0L46 0C51.5228 0 56 4.47715 56 10V46C56 51.5228 51.5228 56 46 56H10C4.47715 56 0 51.5228 0 46L0 10Z" fill="#FD6C57"/>
<path fill-rule="evenodd" clip-rule="evenodd" d="M176 17C176 12.5817 179.582 9 184 9L336 9C340.418 9 344 12.5817 344 17V39C344 43.4183 340.418 47 336 47H184C179.582 47 176 43.4183 176 39V17Z" fill="#F0F0F0"/>
<path fill-rule="evenodd" clip-rule="evenodd" d="M326.384 30.5391C326.289 30.6531 326.148 30.719 326 30.719C325.852 30.719 325.711 30.6531 325.616 30.5391L321.683 25.8201C321.559 25.6711 321.532 25.4636 321.615 25.2879C321.697 25.1122 321.874 25 322.068 25H329.932C330.126 25 330.303 25.1122 330.385 25.2879C330.468 25.4636 330.441 25.6711 330.317 25.8201L326.384 30.5391Z" fill="#666666"/>
<path fill-rule="evenodd" clip-rule="evenodd" d="M0 82C0 76.4772 4.47715 72 10 72H46C51.5228 72 56 76.4772 56 82V118C56 123.523 51.5228 128 46 128H10C4.47715 128 0 123.523 0 118L0 82Z" fill="#FE9654"/>
<path fill-rule="evenodd" clip-rule="evenodd" d="M176 89C176 84.5817 179.582 81 184 81H336C340.418 81 344 84.5817 344 89V111C344 115.418 340.418 119 336 119H184C179.582 119 176 115.418 176 111V89Z" fill="#F0F0F0"/>
<path fill-rule="evenodd" clip-rule="evenodd" d="M326.384 102.539C326.289 102.653 326.148 102.719 326 102.719C325.852 102.719 325.711 102.653 325.616 102.539L321.683 97.8201C321.559 97.6711 321.532 97.4636 321.615 97.2879C321.697 97.1122 321.874 97 322.068 97H329.932C330.126 97 330.303 97.1122 330.385 97.2879C330.468 97.4636 330.441 97.6711 330.317 97.8201L326.384 102.539Z" fill="#666666"/>
<path fill-rule="evenodd" clip-rule="evenodd" d="M0 154C0 148.477 4.47715 144 10 144H46C51.5228 144 56 148.477 56 154V190C56 195.523 51.5228 200 46 200H10C4.47715 200 0 195.523 0 190L0 154Z" fill="#615DD9"/>
<path fill-rule="evenodd" clip-rule="evenodd" d="M176 161C176 156.582 179.582 153 184 153H336C340.418 153 344 156.582 344 161V183C344 187.418 340.418 191 336 191H184C179.582 191 176 187.418 176 183V161Z" fill="#F0F0F0"/>
<path fill-rule="evenodd" clip-rule="evenodd" d="M326.384 174.539C326.289 174.653 326.148 174.719 326 174.719C325.852 174.719 325.711 174.653 325.616 174.539L321.683 169.82C321.559 169.671 321.532 169.464 321.615 169.288C321.697 169.112 321.874 169 322.068 169H329.932C330.126 169 330.303 169.112 330.385 169.288C330.468 169.464 330.441 169.671 330.317 169.82L326.384 174.539Z" fill="#666666"/>
<path fill-rule="evenodd" clip-rule="evenodd" d="M0 226C0 220.477 4.47715 216 10 216H46C51.5228 216 56 220.477 56 226V262C56 267.523 51.5228 272 46 272H10C4.47715 272 0 267.523 0 262L0 226Z" fill="#1E9895"/>
<path fill-rule="evenodd" clip-rule="evenodd" d="M176 233C176 228.582 179.582 225 184 225H336C340.418 225 344 228.582 344 233V255C344 259.418 340.418 263 336 263H184C179.582 263 176 259.418 176 255V233Z" fill="#F0F0F0"/>
<path fill-rule="evenodd" clip-rule="evenodd" d="M326.384 246.539C326.289 246.653 326.148 246.719 326 246.719C325.852 246.719 325.711 246.653 325.616 246.539L321.683 241.82C321.559 241.671 321.532 241.464 321.615 241.288C321.697 241.112 321.874 241 322.068 241H329.932C330.126 241 330.303 241.112 330.385 241.288C330.468 241.464 330.441 241.671 330.317 241.82L326.384 246.539Z" fill="#666666"/>
<path fill-rule="evenodd" clip-rule="evenodd" d="M0 298C0 292.477 4.47715 288 10 288H46C51.5228 288 56 292.477 56 298V334C56 339.523 51.5228 344 46 344H10C4.47715 344 0 339.523 0 334L0 298Z" fill="#3885FF"/>
<path fill-rule="evenodd" clip-rule="evenodd" d="M176 305C176 300.582 179.582 297 184 297H336C340.418 297 344 300.582 344 305V327C344 331.418 340.418 335 336 335H184C179.582 335 176 331.418 176 327V305Z" fill="#F0F0F0"/>
<path fill-rule="evenodd" clip-rule="evenodd" d="M326.384 318.539C326.289 318.653 326.148 318.719 326 318.719C325.852 318.719 325.711 318.653 325.616 318.539L321.683 313.82C321.559 313.671 321.532 313.464 321.615 313.288C321.697 313.112 321.874 313 322.068 313H329.932C330.126 313 330.303 313.112 330.385 313.288C330.468 313.464 330.441 313.671 330.317 313.82L326.384 318.539Z" fill="#666666"/>
<path fill-rule="evenodd" clip-rule="evenodd" d="M0 370C0 364.477 4.47715 360 10 360H46C51.5228 360 56 364.477 56 370V406C56 411.523 51.5228 416 46 416H10C4.47715 416 0 411.523 0 406L0 370Z" fill="#FE457C"/>
<path fill-rule="evenodd" clip-rule="evenodd" d="M176 377C176 372.582 179.582 369 184 369H336C340.418 369 344 372.582 344 377V399C344 403.418 340.418 407 336 407H184C179.582 407 176 403.418 176 399V377Z" fill="#F0F0F0"/>
<path fill-rule="evenodd" clip-rule="evenodd" d="M326.384 390.539C326.289 390.653 326.148 390.719 326 390.719C325.852 390.719 325.711 390.653 325.616 390.539L321.683 385.82C321.559 385.671 321.532 385.464 321.615 385.288C321.697 385.112 321.874 385 322.068 385H329.932C330.126 385 330.303 385.112 330.385 385.288C330.468 385.464 330.441 385.671 330.317 385.82L326.384 390.539Z" fill="#666666"/>
<path fill-rule="evenodd" clip-rule="evenodd" d="M0 442C0 436.477 4.47715 432 10 432H46C51.5228 432 56 436.477 56 442V478C56 483.523 51.5228 488 46 488H10C4.47715 488 0 483.523 0 478L0 442Z" fill="#333333"/>
<path fill-rule="evenodd" clip-rule="evenodd" d="M176 449C176 444.582 179.582 441 184 441H336C340.418 441 344 444.582 344 449V471C344 475.418 340.418 479 336 479H184C179.582 479 176 475.418 176 471V449Z" fill="#F0F0F0"/>
<path fill-rule="evenodd" clip-rule="evenodd" d="M326.384 462.539C326.289 462.653 326.148 462.719 326 462.719C325.852 462.719 325.711 462.653 325.616 462.539L321.683 457.82C321.559 457.671 321.532 457.464 321.615 457.288C321.697 457.112 321.874 457 322.068 457H329.932C330.126 457 330.303 457.112 330.385 457.288C330.468 457.464 330.441 457.671 330.317 457.82L326.384 462.539Z" fill="#666666"/>
</g>
</svg>
