<svg width="28" height="25" viewBox="0 0 28 25" fill="none" xmlns="http://www.w3.org/2000/svg">
<path fill-rule="evenodd" clip-rule="evenodd" d="M7.99994 11.9999C9.1045 11.9999 9.99993 11.1045 9.99993 9.99993C9.99993 8.89537 9.1045 7.99994 7.99994 7.99994C6.89538 7.99994 5.99996 8.89537 5.99996 9.99993C5.99996 11.1045 6.89538 11.9999 7.99994 11.9999Z" fill="#8E8E93"/>
<path fill-rule="evenodd" clip-rule="evenodd" d="M13.9999 11.9999C15.1045 11.9999 15.9999 11.1045 15.9999 9.99993C15.9999 8.89537 15.1045 7.99994 13.9999 7.99994C12.8953 7.99994 11.9999 8.89537 11.9999 9.99993C11.9999 11.1045 12.8953 11.9999 13.9999 11.9999Z" fill="#8E8E93"/>
<path fill-rule="evenodd" clip-rule="evenodd" d="M19.9999 11.9999C21.1044 11.9999 21.9998 11.1045 21.9998 9.99993C21.9998 8.89537 21.1044 7.99994 19.9999 7.99994C18.8953 7.99994 17.9999 8.89537 17.9999 9.99993C17.9999 11.1045 18.8953 11.9999 19.9999 11.9999Z" fill="#8E8E93"/>
</svg>
