<svg width="28" height="27" viewBox="0 0 28 27" fill="none" xmlns="http://www.w3.org/2000/svg">
<path fill-rule="evenodd" clip-rule="evenodd" d="M13.9999 0C13.4854 0 13.0285 0.328775 12.8652 0.816701L10.0501 9.22242L1.18582 9.30199C0.671563 9.30678 0.217448 9.63973 0.0585944 10.1289C-0.100259 10.6183 0.0711592 11.1544 0.484598 11.4604L7.60903 16.7352L4.94563 25.1902C4.79127 25.6809 4.96777 26.2154 5.38389 26.5179C5.5933 26.6702 5.8404 26.7465 6.08721 26.7465C6.33043 26.7465 6.57394 26.6723 6.78185 26.5242L13.9999 21.3784L21.2183 26.5242C21.4262 26.6723 21.6694 26.7465 21.9129 26.7465C22.1597 26.7465 22.4065 26.6702 22.6162 26.5179C23.0324 26.2154 23.2089 25.6809 23.0542 25.1902L20.3908 16.7352L27.5155 11.4604C27.929 11.1544 28.1004 10.6183 27.9415 10.1289C27.7824 9.63974 27.3286 9.30679 26.814 9.30199L17.9497 9.22242L15.1346 0.816701C14.9713 0.328775 14.5145 0 13.9999 0" fill="#CCCCCC"/>
</svg>
