<svg width="24" height="20" viewBox="0 0 24 20" fill="none" xmlns="http://www.w3.org/2000/svg">
<path fill-rule="evenodd" clip-rule="evenodd" d="M23.7421 10.0196C23.7421 9.17405 23.0567 8.48861 22.2112 8.48861H5.42024L11.6436 2.68623C12.0663 2.31868 12.2545 1.74967 12.1343 1.2026C12.0142 0.655529 11.6049 0.217749 11.0671 0.0611189C10.5293 -0.0955111 9.94898 0.0540189 9.55386 0.451009L0.48668 8.89815C0.17626 9.18771 0 9.59316 0 10.0177C0 10.4422 0.17626 10.8476 0.48668 11.1372L9.55386 19.5882C10.1722 20.1652 11.1412 20.1318 11.7183 19.5135C12.2954 18.8952 12.2619 17.9262 11.6436 17.3491L5.42024 11.5506H22.2112C23.0567 11.5506 23.7421 10.8651 23.7421 10.0196Z" fill="white"/>
</svg>
