<svg width="22" height="20" viewBox="0 0 22 20" fill="none" xmlns="http://www.w3.org/2000/svg">
<path fill-rule="evenodd" clip-rule="evenodd" d="M16.3387 12.3186V9.17355L20.7417 5.39948C20.7417 5.39948 22 4.39603 22 6.02851C21.9939 6.0208 22 15.4637 22 15.4637C22 15.4637 21.4876 16.8384 20.1129 15.4637C20.0979 15.4218 16.3387 12.3186 16.3387 12.3186Z" fill="#414141"/>
<path fill-rule="evenodd" clip-rule="evenodd" d="M0.18433 1.07374C-0.0613145 0.828098 -0.0613145 0.42983 0.18433 0.184185L0.18433 0.184185C0.429975 -0.0614594 0.828243 -0.0614594 1.07389 0.184185L19.7546 18.8649C20.0002 19.1105 20.0002 19.5088 19.7546 19.7545C19.509 20.0001 19.1107 20.0001 18.865 19.7545L0.18433 1.07374Z" fill="#414141"/>
</svg>
