<svg width="200" height="332" viewBox="0 0 200 332" fill="none" xmlns="http://www.w3.org/2000/svg">
<mask id="mask0_0_3640" style="mask-type:luminance" maskUnits="userSpaceOnUse" x="0" y="-1" width="201" height="335">
<path fill-rule="evenodd" clip-rule="evenodd" d="M0 -1H201V334H0V-1Z" fill="white"/>
</mask>
<g mask="url(#mask0_0_3640)">
<path fill-rule="evenodd" clip-rule="evenodd" d="M0 8C0 3.58172 3.58172 0 8 0L192 0C196.418 0 200 3.58172 200 8V30C200 34.4183 196.418 38 192 38H8C3.58172 38 0 34.4183 0 30L0 8Z" fill="#F0F0F0"/>
<path fill-rule="evenodd" clip-rule="evenodd" d="M179.384 21.5391C179.289 21.6531 179.148 21.719 179 21.719C178.852 21.719 178.711 21.6531 178.616 21.5391L174.683 16.8201C174.559 16.6711 174.532 16.4636 174.615 16.2879C174.697 16.1122 174.874 16 175.068 16H182.932C183.126 16 183.303 16.1122 183.385 16.2879C183.468 16.4636 183.441 16.6711 183.317 16.8201L179.384 21.5391Z" fill="#666666"/>
<path fill-rule="evenodd" clip-rule="evenodd" d="M0 57C0 52.5817 3.58172 49 8 49H192C196.418 49 200 52.5817 200 57V79C200 83.4183 196.418 87 192 87H8C3.58172 87 0 83.4183 0 79L0 57Z" fill="#F0F0F0"/>
<path fill-rule="evenodd" clip-rule="evenodd" d="M179.384 70.5391C179.289 70.6531 179.148 70.719 179 70.719C178.852 70.719 178.711 70.6531 178.616 70.5391L174.683 65.8201C174.559 65.6711 174.532 65.4636 174.615 65.2879C174.697 65.1122 174.874 65 175.068 65H182.932C183.126 65 183.303 65.1122 183.385 65.2879C183.468 65.4636 183.441 65.6711 183.317 65.8201L179.384 70.5391Z" fill="#666666"/>
<path fill-rule="evenodd" clip-rule="evenodd" d="M0 106C0 101.582 3.58172 98 8 98H192C196.418 98 200 101.582 200 106V128C200 132.418 196.418 136 192 136H8C3.58172 136 0 132.418 0 128L0 106Z" fill="#F0F0F0"/>
<path fill-rule="evenodd" clip-rule="evenodd" d="M179.384 119.539C179.289 119.653 179.148 119.719 179 119.719C178.852 119.719 178.711 119.653 178.616 119.539L174.683 114.82C174.559 114.671 174.532 114.464 174.615 114.288C174.697 114.112 174.874 114 175.068 114H182.932C183.126 114 183.303 114.112 183.385 114.288C183.468 114.464 183.441 114.671 183.317 114.82L179.384 119.539Z" fill="#666666"/>
<path fill-rule="evenodd" clip-rule="evenodd" d="M0 155C0 150.582 3.58172 147 8 147H192C196.418 147 200 150.582 200 155V177C200 181.418 196.418 185 192 185H8C3.58172 185 0 181.418 0 177L0 155Z" fill="#F0F0F0"/>
<path fill-rule="evenodd" clip-rule="evenodd" d="M179.384 168.539C179.289 168.653 179.148 168.719 179 168.719C178.852 168.719 178.711 168.653 178.616 168.539L174.683 163.82C174.559 163.671 174.532 163.464 174.615 163.288C174.697 163.112 174.874 163 175.068 163H182.932C183.126 163 183.303 163.112 183.385 163.288C183.468 163.464 183.441 163.671 183.317 163.82L179.384 168.539Z" fill="#666666"/>
<path fill-rule="evenodd" clip-rule="evenodd" d="M0 204C0 199.582 3.58172 196 8 196H192C196.418 196 200 199.582 200 204V226C200 230.418 196.418 234 192 234H8C3.58172 234 0 230.418 0 226L0 204Z" fill="#F0F0F0"/>
<path fill-rule="evenodd" clip-rule="evenodd" d="M179.384 217.539C179.289 217.653 179.148 217.719 179 217.719C178.852 217.719 178.711 217.653 178.616 217.539L174.683 212.82C174.559 212.671 174.532 212.464 174.615 212.288C174.697 212.112 174.874 212 175.068 212H182.932C183.126 212 183.303 212.112 183.385 212.288C183.468 212.464 183.441 212.671 183.317 212.82L179.384 217.539Z" fill="#666666"/>
<path fill-rule="evenodd" clip-rule="evenodd" d="M0 253C0 248.582 3.58172 245 8 245H192C196.418 245 200 248.582 200 253V275C200 279.418 196.418 283 192 283H8C3.58172 283 0 279.418 0 275L0 253Z" fill="#F0F0F0"/>
<path fill-rule="evenodd" clip-rule="evenodd" d="M179.384 266.539C179.289 266.653 179.148 266.719 179 266.719C178.852 266.719 178.711 266.653 178.616 266.539L174.683 261.82C174.559 261.671 174.532 261.464 174.615 261.288C174.697 261.112 174.874 261 175.068 261H182.932C183.126 261 183.303 261.112 183.385 261.288C183.468 261.464 183.441 261.671 183.317 261.82L179.384 266.539Z" fill="#666666"/>
<path fill-rule="evenodd" clip-rule="evenodd" d="M0 302C0 297.582 3.58172 294 8 294H192C196.418 294 200 297.582 200 302V324C200 328.418 196.418 332 192 332H8C3.58172 332 0 328.418 0 324L0 302Z" fill="#F0F0F0"/>
<path fill-rule="evenodd" clip-rule="evenodd" d="M179.384 315.539C179.289 315.653 179.148 315.719 179 315.719C178.852 315.719 178.711 315.653 178.616 315.539L174.683 310.82C174.559 310.671 174.532 310.464 174.615 310.288C174.697 310.112 174.874 310 175.068 310H182.932C183.126 310 183.303 310.112 183.385 310.288C183.468 310.464 183.441 310.671 183.317 310.82L179.384 315.539Z" fill="#666666"/>
</g>
</svg>
