<svg width="13" height="10" viewBox="0 0 13 10" fill="none" xmlns="http://www.w3.org/2000/svg">
<path fill-rule="evenodd" clip-rule="evenodd" d="M1 2H9C9.55228 2 10 1.55228 10 1C10 0.44771 9.55228 0 9 0H1C0.44771 0 0 0.44772 0 1C0 1.55229 0.44772 2 1 2Z" fill="white"/>
<path fill-rule="evenodd" clip-rule="evenodd" d="M12 4H1C0.44771 4 0 4.44772 0 5C0 5.55229 0.44772 6 1 6H12C12.5523 6 13 5.55228 13 5C13 4.44771 12.5523 4 12 4Z" fill="white"/>
<path fill-rule="evenodd" clip-rule="evenodd" d="M11 8H1C0.44771 8 0 8.44772 0 9C0 9.55228 0.44772 10 1 10H11C11.5523 10 12 9.55228 12 9C12 8.44772 11.5523 8 11 8Z" fill="white"/>
</svg>
