<svg width="219" height="24" viewBox="0 0 219 24" fill="none" xmlns="http://www.w3.org/2000/svg">
<path fill-rule="evenodd" clip-rule="evenodd" d="M7.28301 12.7291C8.57203 14.0181 10.0222 15.0654 11.569 15.8549L14.0665 13.3575C14.3807 13.0433 14.8479 12.9466 15.2427 13.0835C16.427 13.4783 17.6516 13.6878 18.8761 13.7361C19.1662 13.7361 19.4481 13.857 19.6657 14.0745C19.8912 14.3001 20.004 14.5901 20.004 14.8801L20.004 18.8761C20.0121 19.1581 19.8993 19.4481 19.6737 19.6737C19.4481 19.8992 19.1581 20.012 18.8681 20.012C14.0826 19.8831 9.32933 17.9979 5.67173 14.3403C2.01414 10.6827 0.128948 5.92948 4.7031e-05 1.14399C4.73697e-05 0.85396 0.11284 0.563933 0.338419 0.338353C0.563998 0.112774 0.854025 -1.78084e-05 1.14406 -1.8147e-05L5.14002 -1.78084e-05C5.43005 -1.78084e-05 5.72007 0.112768 5.94565 0.338347C6.16318 0.555872 6.27597 0.845898 6.28402 1.12787C6.3243 2.3605 6.54988 3.58506 6.94464 4.76935C7.0816 5.16411 6.99298 5.62333 6.67072 5.94559L4.17324 8.44307C4.94666 9.98989 5.99398 11.44 7.28301 12.7291L7.28301 12.7291Z" fill="#FD6C57"/>
<path fill-rule="evenodd" clip-rule="evenodd" d="M216.235 14.6736C215.653 14.6736 215.181 15.1454 215.181 15.7273V20.7563C215.181 20.9144 215.052 21.0432 214.894 21.0432H195.654C195.496 21.0432 195.367 20.9144 195.367 20.7563V3.66483C195.367 3.50647 195.496 3.37763 195.654 3.37763H205.982C206.564 3.37763 207.036 2.90588 207.036 2.32394C207.036 1.742 206.564 1.27025 205.982 1.27025H195.654C194.334 1.27025 193.26 2.34441 193.26 3.66484V20.7563C193.26 22.0768 194.334 23.1506 195.654 23.1506H214.895C216.215 23.1506 217.289 22.0768 217.289 20.7563V15.7273C217.289 15.1454 216.817 14.6736 216.235 14.6736L216.235 14.6736Z" fill="#FD6C57"/>
<path fill-rule="evenodd" clip-rule="evenodd" d="M218.859 6.74039L212.715 0.928538C212.584 0.804802 212.392 0.770792 212.226 0.841836C212.06 0.91319 211.953 1.07636 211.953 1.25669V4.6863C202.01 4.97261 200.745 14.7006 200.733 14.8002C200.708 15.0134 200.836 15.2151 201.04 15.2822C201.087 15.2976 201.135 15.3048 201.181 15.3048C201.34 15.3048 201.492 15.2208 201.574 15.0766C204.405 10.1038 209.302 9.567 211.276 9.567C211.524 9.567 211.734 9.57513 211.898 9.58506V13.0469C211.898 13.2281 212.006 13.3919 212.172 13.4626C212.339 13.5331 212.532 13.4979 212.663 13.372L218.862 7.39368C218.951 7.30819 219.001 7.18987 219 7.06644C218.999 6.94301 218.949 6.8253 218.859 6.7404L218.859 6.74039Z" fill="#FD6C57"/>
</svg>
