<svg width="22" height="22" viewBox="0 0 22 22" fill="none" xmlns="http://www.w3.org/2000/svg">
<path fill-rule="evenodd" clip-rule="evenodd" d="M15.2249 11.0411C13.7947 10.8136 12.3971 10.5536 11.0319 10.326C8.72419 9.93599 6.41645 9.54596 4.10872 9.15591C3.75118 9.09091 3.39364 9.02589 3.0036 8.96089C2.87358 8.9284 2.80858 8.89589 2.77607 8.76587C1.86598 6.32812 0.955881 3.92288 0.0782868 1.48513C-0.0842252 1.09509 0.0132841 0.705044 0.305812 0.38002C0.663353 0.0224793 1.08589 -0.07503 1.57344 0.0549858C1.70346 0.087482 1.83346 0.152495 1.96348 0.217498C8.36664 3.53284 14.7698 6.78317 21.2055 10.001C21.7905 10.2935 22.0505 10.7811 21.9205 11.3336C21.823 11.6587 21.628 11.8212 21.3355 11.9837C18.2476 13.5114 15.1923 15.0715 12.1045 16.6317C8.65917 18.3544 5.21381 20.1095 1.76846 21.8322C1.05339 22.1898 0.338319 21.9622 0.110793 21.2797C0.0132841 21.0196 0.0457803 20.7271 0.14329 20.4671C1.02088 18.0943 1.93097 15.7216 2.80857 13.3488C2.87357 13.2188 2.93858 13.1863 3.06859 13.1538C7.099 12.5038 11.1294 11.8212 15.1598 11.1386C15.1273 11.1061 15.1273 11.1061 15.2248 11.0411L15.2249 11.0411Z" fill="#FD6C57"/>
</svg>
